<?xml version="1.0" encoding="UTF-8"?>
<svg id="Layer_1" data-name="Layer 1" xmlns="http://www.w3.org/2000/svg" viewBox="0 0 628.23 126.19">
  <defs>
    <style>
      .cls-1 {
        fill: #231f20;
      }

      .cls-2 {
        fill: #fff;
      }
    </style>
  </defs>
  <rect class="cls-1" x="36.36" y="42.44" width="558.15" height="71.5"/>
  <g>
    <path class="cls-2" d="M104.79,88.57c-.58,5.34-2.45,10.05-5.61,14.14-3.16,4.09-7.29,7.26-12.4,9.53-5.1,2.26-10.93,3.39-17.49,3.39-7.31,0-13.72-1.42-19.23-4.26-5.51-2.84-9.8-6.8-12.88-11.87-3.07-5.07-4.61-10.98-4.61-17.7s1.54-12.63,4.61-17.7c3.07-5.07,7.36-9.03,12.88-11.88,5.51-2.84,11.92-4.26,19.23-4.26,6.55,0,12.38,1.13,17.49,3.39,5.1,2.26,9.23,5.42,12.4,9.48,3.16,4.06,5.03,8.79,5.61,14.18h-11.57c-.64-3.48-2.02-6.47-4.13-8.96-2.12-2.49-4.86-4.42-8.22-5.79-3.36-1.36-7.25-2.04-11.66-2.04-5.1,0-9.53.96-13.27,2.87-3.74,1.91-6.63,4.64-8.66,8.18-2.03,3.54-3.04,7.71-3.04,12.53s1.01,8.99,3.04,12.53c2.03,3.54,4.92,6.26,8.66,8.18s8.16,2.87,13.27,2.87c4.41,0,8.29-.67,11.66-2,3.36-1.33,6.1-3.26,8.22-5.79,2.12-2.52,3.49-5.52,4.13-9h11.57Z"/>
    <path class="cls-2" d="M169.16,105.28l-6.96,9.74c-6.26,0-10.79-3.74-11.92-10.87l-1.65-10.35c-1.22-7.39-3.04-9.13-9.05-9.66l-1.83.96v20.01c1.48.26,2.61.52,3.13.52.96,0,1.74-.43,3.31-2.61l1.39.96c-2.09,2.52-5.83,7.22-8.44,11.13-6.52-2.61-10.96-4-18.79-4-4.18,0-6,1.04-8.7,3.31l-1.22-1.39,7.57-6.96c3.04-2.78,6.44-6.35,6.44-12.18v-9.92h-1.83c-4.09,0-6.87,1.57-7.92,3.91l-.87-.35c.35-8.09,3.83-12.79,10.18-12.79h.44v-10.96c-6.79-5.13-8.61-5.83-9.83-5.83-1.13,0-2.17.61-3.57,1.91l-1.04-1.22,10.96-9.22c4.26,3.13,9.48,7.05,13.48,10l3.65-2.35v-1.91c0-2.17-.43-4.44-.78-5.57v-.17l2,.26c.26,1.04.43,3.22.43,4.87v1.48l10.27-6.61c6.87,2.09,13.05,5.31,13.05,13.74,0,6.7-3.65,11.92-12.09,15.57,6.61.78,8.96,5.92,10,11.92l1.48,8.52c1.13,6.44,3.04,6.96,4.7,6.96.87,0,1.65-.7,2.52-2.09l1.48,1.22ZM136.1,59c-1.57,1.04-3.57,2.26-3.57,2.26v25.84c0,8.09-4.78,12.35-10.44,16.09l.09.17c1.13-.35,2.7-.78,4.78-.78s5.92,1.48,9.13,2.17v-45.76ZM140.89,55.95l-3.13,2v25.23c9.66-4.26,12.88-8.7,12.88-15.66s-3.91-9.92-9.74-11.57Z"/>
    <path class="cls-2" d="M190.04,81.79l-4.61,29.14-5.48-6.44h50.63v9.92h-56.89l5.22-32.62-5.22-32.62h56.46v9.92h-50.19l5.48-6.44,4.61,29.14ZM228.05,77v9.57h-45.58v-9.57h45.58Z"/>
    <path class="cls-2" d="M280.25,49.16l31.32,65.25h-12.27l-28.45-60.9h4.44l-28.45,60.9h-12.27l31.32-65.25h14.35ZM249.98,99.45v-9.48h45.58v9.48h-45.58Z"/>
    <path class="cls-2" d="M302.17,49.16h65.42v10.09h-65.42v-10.09ZM329.14,54.47h11.48v59.94h-11.48v-59.94Z"/>
    <path class="cls-2" d="M388.87,108.66c2.36.56,5.28,1.6,7.54,2.83v2.92h-23.56v-2.92c2.26-1.22,5.09-2.17,7.54-2.83v-54.47c-2.45-.66-5.28-1.7-7.54-2.83v-2.92h23.56v2.92c-2.36,1.13-5.18,2.26-7.54,2.83v54.47Z"/>
    <path class="cls-2" d="M441.68,109.54h-5.39l28.1-60.37h12.27l-31.49,65.25h-12.79l-31.49-65.25h12.35l28.45,60.37Z"/>
    <path class="cls-2" d="M531.63,52.01c-.26.08-.35.24-.87.96-.35.24-1.39.4-2,.48-.96-.24-2.09-.48-3.13-.48-.35,0-.87.24-1.13.48l-.78-.48c-1.74-.08-3.48-.24-5.31-.24-1.57,0-3.04,0-4.61.08l-.52.32c-.43-.24-1.57-.4-2-.16-1.39-.16-2.35-.16-5.66-.16-7.31.48-7.65.48-8,.72-.26,3.04-.87,6-1.22,8.56.09.96.35,2.16.52,3.04l.52.56c0,.64-.09.8-.87.8l.44.64-.09,1.12.35.4c-.17.8-.35,2-.61,2.8,0,.32.26,1.2.26,1.76,0,.32,0,.64-.09.96l.17.48-.44,2.24.44.48c-.09.48-.35.72-.61.96,0,1.6-.09,3.28.26,4.88,0,.64-.17,1.6-.26,2.24l.52.64c0,.24,0,.32.09.48,1.04.08,2.44.4,3.57.48,1.22.08,2.78-.16,3.91-.16.61.16,1.48.4,2,.48.78.08,1.3,0,1.91-.16.09.16.26.4.43.48l-.61,1.68c.52.32.52.48.52.72l-1.13,1.04.09.72.7,1.52c-.35.88-.43,1.28-.17,1.6-.17.96-.17,1.28.17,1.44,0,.24-.09.72-.35,1.84.09.24.35.56.52.72-.17.88-1.04,1.36-2,1.52-1.22,0-3.48.16-4.35.16-.52-.08-1.39-.24-2.17-.24-2.35.16-2.52.32-3.48.96-.35.8-.78,1.68-.96,2.56l.26.56-.09,3.44.26.4-.17.72c.87.64,1.13.96,1.13,1.2.7.16,2.09.48,2.78.64,3.83-.16,4.26-.16,5.74-.4,1.04-.08,2.61,0,3.74,0,1.91.24,3.22.56,5.22.4l.78.4c.61,0,1.91-.08,2.44-.4.7.16,1.48.32,4.79.32l.35-.32c.61.08,1.13.24,3.22.24l.17-.24c1.22,0,1.65,0,2.17-.16.17.08.61.16,1.04.16.26-.16.61-.24.96-.32.43.72.61,1.04.61,1.28-.17.56-.35,1.36-.35,1.92,0,.32.17,1.04.61,1.84l-1.04.8-2.09.16c-2.44-.4-3.83-.56-6.18-.48l-.52.32c-2.61-.56-4.44-.64-8.87-.64-.52.08-1.13.16-1.57.24h-3.48c-.61,0-1.13.16-1.57.32h-4.35c-.7,0-2.26-.16-3.13-.24h-4.35c-2.26-.16-4.52-.32-6.79-.64l-.43.24-2.96-.32-.43.24c-1.65-.24-1.91-.24-2.35-.64,0-.48-.09-1.04-.09-1.52.44-3.6.35-3.84.26-4,.17-.88.26-1.76.43-2.72l-.35-.8c.09-.8,0-1.12-.44-1.6l.52-1.44-.17-.56.43-1.12c-.17-.08-.43-.32-.43-.48.26-.88.26-1.2.09-1.52.09-.4.09-.8.09-1.12-.09-1.2-.35-3.2-.35-3.84,0-.72.17-1.52.61-2l-.43-2.4.52-.48-.35-.72.26-1.04-.43-.64c0-.32.26-.72.43-1.12,0-.24-.09-.48-.35-.48l-.09-.72.61-1.84-.61-1.12.43-1.2-.35-.64.43-4.24-.52-.72c.09-3.12.26-6.4.78-9.52-.17-.24-.17-.48-.35-.88,0-.32.17-.64.17-.96-.17-.4-.26-.88-.43-1.28.26-1.36.35-2.16.35-3.52.09-.24.09-.56.09-1.84l-.61-2c.09-1.04.09-1.28,0-1.68.17-.8.09-1.68-.09-3.12.17-1.12.52-1.6,1.04-2,1.65,0,3.3.08,4.96-.08,1.13,0,2.35.16,3.57.16,1.74-.08,3.57-.08,5.57-.08,1.04-.08,2.09-.16,3.22-.32.78.08,1.74.24,2.52.32l.26-.32,3.57.32.43-.32c1.65.08,4.09.16,6,.24.78-.08,1.48-.08,2.44-.24,2.87-.08,5.48-.08,6.96-.08,1.04,0,1.74,0,2.09-.08,2.52,0,4.78.32,7.22.56.09.8.09,1.04.17,1.28l-.09,1.12.78.72-.35.72Z"/>
    <path class="cls-2" d="M536.93,93.18h11.66c.35,2.61,1.44,4.9,3.26,6.87,1.83,1.97,4.25,3.49,7.26,4.57,3.01,1.07,6.49,1.61,10.44,1.61,5.86,0,10.5-.91,13.92-2.74,3.42-1.83,5.13-4.31,5.13-7.44,0-2.55-.99-4.46-2.96-5.74-1.97-1.28-5.54-2.23-10.7-2.87l-14.09-1.83c-7.89-1.04-13.61-3-17.18-5.87-3.57-2.87-5.35-6.94-5.35-12.22,0-4,1.2-7.47,3.61-10.4,2.41-2.93,5.81-5.19,10.22-6.79,4.41-1.59,9.57-2.39,15.49-2.39s11.05.87,15.57,2.61c4.52,1.74,8.13,4.16,10.83,7.26,2.7,3.1,4.16,6.74,4.39,10.92h-11.66c-.29-2.32-1.26-4.32-2.91-6-1.65-1.68-3.87-3-6.65-3.96-2.78-.96-6.06-1.44-9.83-1.44-5.34,0-9.6.87-12.79,2.61-3.19,1.74-4.79,4.12-4.79,7.13,0,2.32.94,4.1,2.83,5.35,1.88,1.25,5.18,2.19,9.87,2.83l14.27,2c5.86.81,10.48,1.9,13.88,3.26,3.39,1.36,5.81,3.19,7.26,5.48,1.45,2.29,2.17,5.23,2.17,8.83,0,4.18-1.28,7.83-3.83,10.96-2.55,3.13-6.13,5.55-10.74,7.26s-9.99,2.57-16.14,2.57-11.79-.94-16.57-2.83c-4.78-1.88-8.57-4.51-11.35-7.87-2.78-3.36-4.29-7.28-4.52-11.74Z"/>
  </g>
  <g>
    <path class="cls-1" d="M33.07,17.72h23.91v2.69h-23.91v-2.69ZM43.5,19.18h3.04v22.84h-3.04v-22.84Z"/>
    <path class="cls-1" d="M60.38,17.72h3.04v24.29h-3.04v-24.29ZM61.93,28.48h20.18v2.69h-20.18v-2.69ZM80.46,17.72h3.04v24.29h-3.04v-24.29Z"/>
    <path class="cls-1" d="M93.45,29.87l-1.85,11.4-1.62-1.91h18.98v2.66h-20.47l2.01-12.15-2.01-12.15h20.31v2.66h-18.82l1.62-1.91,1.85,11.4ZM108.09,28.57v2.59h-16.55v-2.59h16.55Z"/>
    <path class="cls-1" d="M147.58,32.66c-.22,1.92-.9,3.62-2.04,5.1-1.15,1.48-2.64,2.63-4.49,3.45-1.85.82-3.96,1.23-6.33,1.23-2.68,0-5.03-.53-7.05-1.59-2.02-1.06-3.59-2.53-4.71-4.42s-1.68-4.08-1.68-6.56.56-4.7,1.68-6.58c1.12-1.88,2.69-3.35,4.71-4.41,2.02-1.06,4.37-1.59,7.05-1.59,2.38,0,4.49.41,6.33,1.23,1.85.82,3.34,1.96,4.49,3.42,1.14,1.46,1.82,3.16,2.04,5.1h-3.08c-.26-1.42-.82-2.66-1.68-3.71-.86-1.05-1.99-1.86-3.37-2.43-1.38-.57-2.97-.86-4.76-.86-2.1,0-3.91.4-5.46,1.2s-2.74,1.93-3.58,3.4-1.26,3.21-1.26,5.21.42,3.71,1.26,5.18c.84,1.47,2.04,2.61,3.58,3.42s3.36,1.21,5.46,1.21c1.79,0,3.38-.29,4.76-.86,1.38-.57,2.5-1.38,3.37-2.43.86-1.05,1.43-2.29,1.68-3.74h3.08Z"/>
    <path class="cls-1" d="M148.03,17.72h23.91v2.69h-23.91v-2.69ZM158.46,19.18h3.04v22.84h-3.04v-22.84Z"/>
    <path class="cls-1" d="M198.66,32.66c-.22,1.92-.9,3.62-2.04,5.1-1.15,1.48-2.64,2.63-4.49,3.45-1.85.82-3.96,1.23-6.33,1.23-2.68,0-5.03-.53-7.05-1.59-2.02-1.06-3.59-2.53-4.71-4.42s-1.68-4.08-1.68-6.56.56-4.7,1.68-6.58c1.12-1.88,2.69-3.35,4.71-4.41,2.02-1.06,4.37-1.59,7.05-1.59,2.38,0,4.49.41,6.33,1.23,1.85.82,3.34,1.96,4.49,3.42,1.14,1.46,1.82,3.16,2.04,5.1h-3.08c-.26-1.42-.82-2.66-1.68-3.71-.86-1.05-1.99-1.86-3.37-2.43-1.38-.57-2.97-.86-4.76-.86-2.1,0-3.91.4-5.46,1.2s-2.74,1.93-3.58,3.4-1.26,3.21-1.26,5.21.42,3.71,1.26,5.18c.84,1.47,2.04,2.61,3.58,3.42s3.36,1.21,5.46,1.21c1.79,0,3.38-.29,4.76-.86,1.38-.57,2.5-1.38,3.37-2.43.86-1.05,1.43-2.29,1.68-3.74h3.08Z"/>
  </g>
</svg>