<?xml version="1.0" encoding="UTF-8"?>
<svg id="Layer_1" xmlns="http://www.w3.org/2000/svg" version="1.1" viewBox="0 0 59.34 58.87">
  <!-- Generator: Adobe Illustrator 29.5.0, SVG Export Plug-In . SVG Version: 2.1.0 Build 137)  -->
  <defs>
    <style>
      .st0 {
        fill: #00a1df;
      }
    </style>
  </defs>
  <path class="st0" d="M24.46,0C10.56,2.46,0,14.6,0,29.2c0,11.52,6.57,21.5,16.17,26.42L24.46,0Z"/>
  <path class="st0" d="M41.3,39.87c-3.06,0-5.96-.71-8.54-1.97l-8.48,20.47c1.75.32,3.55.5,5.39.5,16.39,0,29.67-13.28,29.67-29.67,0-.46-.01-.91-.03-1.36-2.93,7.06-9.89,12.02-18,12.02"/>
  <path class="st0" d="M47.83,21.49c0,4.7-3.81,8.51-8.51,8.51s-8.51-3.81-8.51-8.51,3.81-8.51,8.51-8.51,8.51,3.81,8.51,8.51"/>
</svg>