<?xml version="1.0" encoding="UTF-8"?>
<svg id="Layer_1" data-name="Layer 1" xmlns="http://www.w3.org/2000/svg" viewBox="0 0 216 216">
  <defs>
    <style>
      .cls-1 {
        fill: #231f20;
      }

      .cls-2 {
        fill: #b7dc2e;
      }
    </style>
  </defs>
  <path class="cls-1" d="M162.12,102.62c-.15-.46-.77-2.35-1.63-3.3-.07-.08-.13-.15-.2-.22,0,0-.02-.01-.02-.02-1.05-1-2.47-1.32-2.47-1.32l41.16-9.29-30.48-10.7c-4.37-1.75-8.17-2.85-8.17-2.85,0,0-19.45,11.43-23.98,15.8l-28.06,23.2-2.77,2.39-.3-2.49-4.87-40.79c-.24-2.12-.13-4.27.54-6.3,2.21-6.73,7.7-5.85,7.7-5.85l52.47,6.07,46.3,16.99c.26.11,9.64,4.08,9.64,4.08l-54.83,14.6Z"/>
  <path class="cls-2" d="M135.13,166.47c.4-.28,1.58-.75,2.75-2.18.86-1.1,1.14-2.49,1.14-2.49l20.4,35.76,1.32-32.28c.4-4.69.33-8.65.33-8.65,0,0-16.62-15.26-22.12-18.31l-30.39-20.06-3.1-1.95,2.3-1.01,37.59-16.58c1.96-.85,4.04-1.37,6.19-1.33,7.08.15,7.84,5.65,7.84,5.65l9.53,51.95-2.72,49.24c-.02.28-1.09,10.41-1.09,10.41l-29.99-48.17Z"/>
  <path class="cls-1" d="M66.6,159.27c2.75,3.66,4.9,3.67,4.9,3.67l-27.48,29.1,31.2-8.37c4.6-1.02,8.36-2.26,8.36-2.26,0,0,9.61-20.41,10.88-26.57l10.08-34.99.93-3.54,1.65,1.89,27.04,30.93c1.39,1.61,2.51,3.45,3.11,5.51,1.97,6.8-3.06,9.17-3.06,9.17l-46.74,24.59-47.81,12.1c-.28.06-10.26,2.07-10.26,2.07l37.19-43.29Z"/>
  <path class="cls-1" d="M52.36,94.25c-2.25,3.3-1.55,6.08-1.55,6.08l-37.02-17.24,18.14,26.73c2.47,4.01,4.88,7.15,4.88,7.15,0,0,22.44,2.38,28.67,1.56l36.36-1.95,3.65-.28-1.24,2.18-20.35,35.69c-1.07,1.84-2.44,3.51-4.18,4.75-5.78,4.09-9.67.12-9.67.12l-38.56-36.09L4.37,81.75c-.15-.24-5.32-9.02-5.32-9.02l53.31,21.51Z"/>
  <path class="cls-1" d="M108.04,58.82c-3.88-.95-6.12,1.38-6.12,1.38l3.09-41.42-18.7,26.34c-2.89,3.72-4.99,7.07-4.99,7.07,0,0,5.61,21.85,8.56,27.41l14.54,33.38,1.54,3.32-2.48-.4-40.55-6.59c-2.1-.35-4.14-1.06-5.91-2.26-5.86-3.99-3.49-9.01-3.49-9.01l20.33-48.75,29.12-39.8c.17-.22,6.59-8.14,6.59-8.14l-1.51,57.47Z"/>
</svg>